<?xml version="1.0" standalone="no"?>
<!DOCTYPE svg PUBLIC "-//W3C//DTD SVG 20010904//EN"
 "http://www.w3.org/TR/2001/REC-SVG-20010904/DTD/svg10.dtd">
<svg version="1.0" xmlns="http://www.w3.org/2000/svg"
 width="1057.000000pt" height="1057.000000pt" viewBox="0 0 1057.000000 1057.000000"
 preserveAspectRatio="xMidYMid meet">
<metadata>
Created by potrace 1.11, written by Peter Selinger 2001-2013
</metadata>
<g transform="translate(0.000000,1057.000000) scale(0.100000,-0.100000)"
fill="#000000" stroke="none">
<path d="M4827 10564 c-1 -1 -54 -5 -117 -8 -112 -7 -154 -10 -262 -22 -29 -3
-73 -7 -98 -10 -25 -2 -61 -6 -80 -9 -19 -3 -53 -8 -75 -11 -96 -13 -208 -32
-265 -44 -25 -5 -58 -12 -75 -15 -16 -3 -79 -16 -140 -31 -60 -14 -119 -27
-131 -29 -60 -13 -330 -93 -470 -140 -578 -194 -1066 -455 -1489 -793 -149
-120 -412 -381 -528 -527 -275 -344 -481 -730 -622 -1165 -20 -63 -38 -122
-40 -131 -2 -9 -13 -52 -24 -95 -26 -103 -48 -199 -57 -249 -4 -22 -8 -49 -10
-60 -11 -55 -34 -206 -39 -250 -3 -27 -7 -65 -10 -83 -26 -190 -26 -714 0
-884 2 -13 6 -50 10 -83 4 -32 9 -68 11 -80 2 -11 6 -36 9 -55 15 -114 79
-379 127 -529 153 -479 400 -935 742 -1366 78 -99 251 -301 331 -389 39 -42
171 -205 221 -271 234 -311 400 -669 469 -1010 35 -171 40 -228 39 -425 -1
-248 -27 -395 -120 -685 -31 -97 -44 -153 -40 -170 8 -31 47 -56 143 -91 83
-30 119 -24 140 24 42 93 124 357 138 442 3 19 10 54 16 78 23 106 34 239 34
427 0 203 -7 286 -36 430 -73 366 -214 696 -440 1031 -42 62 -223 300 -239
314 -3 3 -57 66 -120 140 -63 74 -120 140 -126 145 -23 21 -204 244 -267 330
-37 50 -70 95 -75 100 -19 24 -104 158 -157 245 -70 116 -177 328 -238 470
-45 105 -135 363 -144 409 -2 13 -8 32 -14 43 -5 10 -7 18 -5 18 3 0 1 11 -4
26 -6 14 -12 37 -15 52 -2 15 -13 70 -24 122 -29 139 -33 162 -45 260 -4 30
-9 69 -11 85 -25 205 -26 709 -1 865 3 14 7 56 11 95 4 38 8 72 10 75 1 3 6
32 10 65 3 32 8 62 10 65 2 3 6 23 9 45 26 168 135 523 213 695 26 58 108 224
123 250 91 157 121 207 164 270 28 41 56 82 63 90 6 8 40 51 74 95 348 448
927 900 1439 1125 223 98 604 224 778 256 12 3 59 13 105 24 45 10 96 22 112
24 17 3 95 19 175 35 80 16 165 32 190 36 25 3 52 8 60 10 8 2 33 7 55 10 23
3 52 7 65 10 14 3 45 7 70 10 25 3 56 7 70 10 38 7 91 14 155 21 32 3 66 7 74
9 136 26 867 26 911 0 3 -2 37 -6 75 -10 39 -4 73 -9 76 -11 4 -2 24 -6 45 -9
202 -30 558 -119 774 -194 254 -87 536 -217 733 -337 54 -32 105 -63 115 -69
77 -45 272 -189 378 -280 192 -163 381 -362 547 -575 283 -361 500 -790 576
-1138 58 -264 62 -532 12 -789 -23 -114 -15 -159 41 -244 19 -30 47 -74 62
-99 44 -74 50 -83 69 -104 9 -11 17 -23 17 -27 0 -4 6 -14 13 -21 7 -7 51 -60
97 -118 46 -58 87 -107 90 -110 3 -3 48 -57 100 -120 51 -63 96 -117 99 -120
3 -3 24 -25 45 -50 97 -112 178 -201 268 -294 170 -178 192 -209 190 -268 -2
-78 -114 -168 -365 -292 -152 -75 -210 -120 -251 -196 -32 -58 -41 -146 -24
-223 9 -42 85 -204 152 -324 31 -55 34 -67 24 -93 -12 -34 -97 -100 -194 -148
-130 -65 -168 -122 -144 -213 11 -39 77 -113 193 -214 167 -145 171 -200 22
-284 -66 -37 -157 -127 -185 -181 -59 -116 -62 -253 -11 -458 39 -154 42 -172
46 -270 8 -224 -102 -362 -340 -428 -80 -22 -755 -32 -755 -11 0 8 -14 13 -37
13 -21 1 -87 4 -148 8 -60 4 -195 8 -300 11 -205 4 -285 -7 -408 -54 -78 -31
-190 -107 -259 -178 -110 -111 -175 -212 -261 -408 -134 -303 -291 -626 -415
-850 -159 -289 -163 -299 -131 -339 26 -34 160 -116 188 -116 32 0 70 43 121
135 24 44 59 107 77 140 72 131 341 677 387 785 100 236 164 347 255 437 95
94 228 143 371 137 125 -5 386 -15 515 -19 72 -2 184 -8 250 -12 152 -10 443
-10 515 -1 133 18 269 67 369 132 292 192 382 499 270 920 -47 175 -51 252
-16 295 6 7 50 39 97 71 164 111 231 216 224 357 -4 88 -56 214 -115 276 -11
12 -32 41 -45 64 -32 53 -25 84 30 125 93 70 169 195 169 277 0 83 -16 119
-179 407 -24 43 -27 56 -19 79 11 30 18 34 160 102 139 66 237 133 327 223
149 148 186 300 118 482 -29 77 -59 120 -175 244 -55 59 -104 112 -110 118 -5
6 -53 58 -105 116 -52 58 -99 110 -105 116 -10 10 -101 115 -138 158 -10 12
-28 32 -40 46 -42 47 -183 225 -243 305 -142 190 -149 207 -140 340 3 56 8
110 10 122 23 117 23 441 0 558 -2 11 -7 36 -10 55 -15 85 -80 306 -126 430
-136 368 -341 713 -624 1047 -71 84 -322 337 -412 415 -42 37 -90 79 -107 93
-54 47 -288 221 -380 282 -247 164 -602 345 -840 428 -267 93 -305 105 -510
154 -105 26 -180 41 -275 57 -14 3 -36 7 -50 9 -14 3 -45 7 -70 10 -25 3 -56
7 -70 10 -37 7 -217 25 -318 31 -81 6 -580 12 -585 8z"/>
<path d="M3225 8374 c-49 -6 -118 -13 -153 -15 -49 -2 -68 -7 -87 -25 -14 -13
-25 -29 -25 -36 -1 -23 -2 -5122 -1 -5139 2 -32 28 -49 102 -68 153 -39 396
-46 546 -17 11 3 42 8 67 11 97 15 139 72 129 175 -3 30 -7 805 -8 1721 l-3
1666 34 17 c19 9 40 16 47 15 7 0 63 -64 124 -142 62 -78 123 -154 135 -169
13 -14 33 -39 45 -55 23 -30 160 -199 178 -220 5 -7 15 -18 20 -25 154 -193
381 -474 385 -478 3 -3 23 -27 45 -55 21 -27 42 -52 45 -55 3 -3 86 -106 184
-230 99 -124 182 -227 186 -230 3 -3 21 -25 40 -50 19 -25 39 -50 45 -56 5 -6
24 -29 40 -50 17 -21 42 -52 56 -69 14 -16 144 -178 290 -360 145 -181 271
-339 281 -350 41 -50 165 -205 188 -235 14 -18 30 -38 35 -44 6 -6 26 -31 45
-56 45 -58 57 -73 100 -125 19 -24 56 -69 81 -101 295 -377 323 -405 436 -445
66 -23 215 -32 303 -18 30 5 71 11 90 14 20 3 47 7 60 10 13 3 42 7 64 11 49
7 64 14 96 49 23 24 25 35 25 108 -1 45 -4 107 -9 137 -5 30 -8 1104 -6 2385
1 1282 2 2363 1 2402 -1 137 -36 171 -180 179 -189 9 -498 7 -539 -5 -75 -21
-118 -71 -138 -162 -3 -13 -4 -139 -4 -279 2 -229 2 -3269 1 -3314 -1 -12 -21
7 -58 55 -73 94 -259 328 -281 354 -10 11 -65 81 -123 155 -92 118 -664 840
-1054 1330 -72 91 -189 239 -260 329 -72 90 -240 302 -375 471 -135 170 -335
422 -445 560 -110 139 -207 260 -215 270 -8 10 -40 51 -70 90 -60 78 -120 127
-190 154 -57 23 -201 27 -325 10z"/>
</g>
</svg>
